<?xml version="1.0" encoding="UTF-8"?>
<svg width="280px" height="280px" viewBox="0 0 280 280" version="1.1" xmlns="http://www.w3.org/2000/svg" xmlns:xlink="http://www.w3.org/1999/xlink">
    <!-- Generator: Sketch 51.2 (57519) - http://www.bohemiancoding.com/sketch -->
    <title>Logo</title>
    <desc>Created with Sketch.</desc>
    <defs>
        <radialGradient cx="19.37479%" cy="79.7904066%" fx="19.37479%" fy="79.7904066%" r="108.632889%" gradientTransform="translate(0.193748,0.797904),rotate(139.009138),scale(1.000000,1.188457),translate(-0.193748,-0.797904)" id="radialGradient-1">
            <stop stop-color="#FFF4CB" offset="0%"></stop>
            <stop stop-color="#FEF3C7" offset="0%"></stop>
            <stop stop-color="#D6A80D" offset="100%"></stop>
        </radialGradient>
        <filter x="0.0%" y="0.0%" width="100.0%" height="100.0%" filterUnits="objectBoundingBox" id="filter-2">
            <feGaussianBlur stdDeviation="0" in="SourceGraphic"></feGaussianBlur>
        </filter>
    </defs>
    <g id="Logo" stroke="none" stroke-width="1" fill="none" fill-rule="evenodd">
        <circle id="Oval" stroke="#DABC59" fill="url(#radialGradient-1)" filter="url(#filter-2)" cx="140" cy="140" r="139.5"></circle>
        <g id="Front" transform="translate(37.000000, 51.000000)">
            <path d="M184.187472,80.7296478 C188.069201,90.5659909 190.201342,101.281065 190.201342,112.493103 C190.201342,160.387618 151.295188,199.213793 103.302013,199.213793 C55.3088393,199.213793 16.4026846,160.387618 16.4026846,112.493103 C16.4026846,100.655834 18.7792504,89.3724995 23.0821957,79.0923619 C11.3721729,72.3548216 3.48993289,59.7339475 3.48993289,45.2758621 C3.48993289,23.732948 20.98989,6.26896552 42.5771812,6.26896552 C58.5055111,6.26896552 72.2085628,15.7769283 78.2983063,29.4159 C86.2167626,27.0458271 94.6103708,25.7724138 103.302013,25.7724138 C113.238985,25.7724138 122.7864,27.4368753 131.67958,30.501664 C137.514377,16.2841754 151.518077,6.26896552 167.865772,6.26896552 C189.453063,6.26896552 206.95302,23.732948 206.95302,45.2758621 C206.95302,61.0045715 197.624468,74.5589597 184.187472,80.7296478 Z" id="Combined-Shape" fill="#A06C3E"></path>
            <ellipse id="Oval-4" stroke="#979797" stroke-width="0.5" fill="#F2D28D" cx="105.221477" cy="151.674138" rx="39.261745" ry="26.6431034"></ellipse>
            <ellipse id="Oval-4" fill="#422B17" cx="105.395973" cy="127.643103" rx="16.0536913" ry="10.9706897"></ellipse>
            <ellipse id="Oval-3" fill="#000000" cx="73.4630872" cy="95.2534483" rx="7.5033557" ry="7.48793103"></ellipse>
            <ellipse id="Oval-3" fill="#000000" cx="136.979866" cy="95.2534483" rx="7.5033557" ry="7.48793103"></ellipse>
            <path d="M105.387273,149.062069 C106.960064,155.032301 108.87338,159.811473 111.12722,163.399584 C113.381059,166.987695 120.079145,166.987695 131.221477,163.399584 C119.793534,169.397563 111.182133,172.396552 105.387273,172.396552 C99.5924124,172.396552 91.1031425,169.397563 79.9194631,163.399584 C90.2011737,166.490375 96.3127554,166.490375 98.254208,163.399584 C100.195661,160.308793 102.573349,155.529622 105.387273,149.062069 Z" id="Triangle" fill="#000000"></path>
        </g>
    </g>
</svg>